<svg width="32" height="40" viewBox="0 0 32 40" fill="none" xmlns="http://www.w3.org/2000/svg">
<path d="M1.5 34C1.06667 34 0.708333 33.8583 0.425 33.575C0.141667 33.2917 0 32.9333 0 32.5C0 32.0667 0.141667 31.7083 0.425 31.425C0.708333 31.1417 1.06667 31 1.5 31H4.2V15.7C4.2 12.9667 5.025 10.4917 6.675 8.275C8.325 6.05833 10.5 4.66667 13.2 4.1V2.65C13.2 1.88333 13.475 1.25 14.025 0.75C14.575 0.25 15.2333 0 16 0C16.7667 0 17.425 0.25 17.975 0.75C18.525 1.25 18.8 1.88333 18.8 2.65V4.1C21.5 4.66667 23.6833 6.05833 25.35 8.275C27.0167 10.4917 27.85 12.9667 27.85 15.7V31H30.5C30.9333 31 31.2917 31.1417 31.575 31.425C31.8583 31.7083 32 32.0667 32 32.5C32 32.9333 31.8583 33.2917 31.575 33.575C31.2917 33.8583 30.9333 34 30.5 34H1.5ZM16 40C14.9333 40 14 39.6083 13.2 38.825C12.4 38.0417 12 37.1 12 36H20C20 37.1 19.6083 38.0417 18.825 38.825C18.0417 39.6083 17.1 40 16 40Z" fill="#F9F9F9"/>
</svg>
